<svg width="23" height="24" viewBox="0 0 23 24" fill="none" xmlns="http://www.w3.org/2000/svg">
<path d="M0 12C0 14.2053 1.79467 16 4 16C5.05867 16 6.016 15.58 6.732 14.9067L14.72 19.472C14.696 19.6453 14.6667 19.8187 14.6667 20C14.6667 22.2053 16.4613 24 18.6667 24C20.872 24 22.6667 22.2053 22.6667 20C22.6667 17.7947 20.872 16 18.6667 16C17.608 16 16.6507 16.42 15.9347 17.0933L7.94667 12.5293C7.97067 12.3547 8 12.1813 8 12C8 11.8187 7.97067 11.6453 7.94667 11.4707L15.9347 6.90667C16.6507 7.58 17.608 8 18.6667 8C20.872 8 22.6667 6.20533 22.6667 4C22.6667 1.79467 20.872 0 18.6667 0C16.4613 0 14.6667 1.79467 14.6667 4C14.6667 4.18133 14.696 4.35467 14.72 4.52933L6.732 9.09333C5.99467 8.39291 5.01698 8.00164 4 8C1.79467 8 0 9.79467 0 12Z" fill="white"/>
</svg>
