<svg width="21" height="22" viewBox="0 0 21 22" fill="none" xmlns="http://www.w3.org/2000/svg">
<path d="M17 10.4798C16.7348 10.4798 16.4804 10.5852 16.2929 10.7727C16.1054 10.9603 16 11.2146 16 11.4798V13.8698L14.5 12.3898C13.973 11.8838 13.2706 11.6012 12.54 11.6012C11.8094 11.6012 11.107 11.8838 10.58 12.3898L9.88 13.0898L7.39 10.5998C6.86912 10.082 6.16448 9.79133 5.43 9.79133C4.69551 9.79133 3.99088 10.082 3.47 10.5998L2 12.0898V6.47984C2 6.21462 2.10536 5.96027 2.29289 5.77273C2.48043 5.58519 2.73478 5.47984 3 5.47984H9C9.26522 5.47984 9.51957 5.37448 9.70711 5.18694C9.89464 4.99941 10 4.74505 10 4.47984C10 4.21462 9.89464 3.96027 9.70711 3.77273C9.51957 3.58519 9.26522 3.47984 9 3.47984H3C2.20435 3.47984 1.44129 3.79591 0.87868 4.35852C0.316071 4.92112 0 5.68419 0 6.47984V18.4798C0 19.2755 0.316071 20.0385 0.87868 20.6012C1.44129 21.1638 2.20435 21.4798 3 21.4798H15C15.7956 21.4798 16.5587 21.1638 17.1213 20.6012C17.6839 20.0385 18 19.2755 18 18.4798V11.4798C18 11.2146 17.8946 10.9603 17.7071 10.7727C17.5196 10.5852 17.2652 10.4798 17 10.4798ZM3 19.4798C2.73478 19.4798 2.48043 19.3745 2.29289 19.1869C2.10536 18.9994 2 18.7451 2 18.4798V14.9198L4.88 11.9998C4.95271 11.9248 5.03975 11.8652 5.13595 11.8245C5.23214 11.7838 5.33554 11.7628 5.44 11.7628C5.54446 11.7628 5.64786 11.7838 5.74405 11.8245C5.84025 11.8652 5.92729 11.9248 6 11.9998L9.17 15.1698L13.43 19.4298L3 19.4798ZM16 18.4798C15.9965 18.6725 15.9375 18.86 15.83 19.0198L11.29 14.4998L11.99 13.8098C12.1362 13.6645 12.3339 13.5829 12.54 13.5829C12.7461 13.5829 12.9438 13.6645 13.09 13.8098L16 16.6998V18.4798ZM19.72 3.22984L17.3 0.809836C17.1126 0.623585 16.8592 0.519043 16.595 0.519043C16.3308 0.519043 16.0774 0.623585 15.89 0.809836L11.31 5.38984C11.2137 5.48161 11.1367 5.59168 11.0835 5.7136C11.0302 5.83551 11.0018 5.96682 11 6.09984V8.51984C11 8.78505 11.1054 9.03941 11.2929 9.22694C11.4804 9.41448 11.7348 9.51984 12 9.51984H14.42C14.6823 9.51873 14.9337 9.41458 15.12 9.22984L19.7 4.64984C19.795 4.5582 19.871 4.44865 19.9235 4.3275C19.976 4.20636 20.004 4.07602 20.0058 3.944C20.0077 3.81199 19.9834 3.68091 19.9343 3.55833C19.8853 3.43576 19.8124 3.32411 19.72 3.22984ZM14 7.51984H13V6.51984L16.6 2.92984L17.6 3.92984L14 7.51984Z" fill="white"/>
</svg>
