<svg width="15" height="22" viewBox="0 0 15 22" fill="none" xmlns="http://www.w3.org/2000/svg">
<path d="M7.54995 0L7.56236 12.8937C6.82977 12.4782 5.98543 12.2215 5.07901 12.2215C4.41743 12.207 3.75956 12.3227 3.14402 12.5618C2.52849 12.8009 1.96769 13.1587 1.49457 13.6141C1.02144 14.0695 0.645513 14.6133 0.38886 15.2137C0.132207 15.814 0 16.4588 0 17.1102C0 17.7615 0.132207 18.4063 0.38886 19.0066C0.645513 19.607 1.02144 20.1508 1.49457 20.6062C1.96769 21.0616 2.52849 21.4194 3.14402 21.6585C3.75956 21.8977 4.41743 22.0133 5.07901 21.9988C7.83553 21.9988 10.0333 19.8111 10.0333 17.1102V4.88862H15V0H7.54995ZM5.07901 19.5545C3.71317 19.5545 2.59566 18.4545 2.59566 17.1102C2.59566 15.7658 3.71317 14.6659 5.07901 14.6659C6.44485 14.6659 7.56236 15.7658 7.56236 17.1102C7.56236 18.4545 6.44485 19.5545 5.07901 19.5545Z" fill="white"/>
</svg>
